Coordinates
version=1
nRows=5
nColumns=46
inDegrees=yes

Units are S.I. units (second, meters, Newtons, ...)
Angles are in degrees.

endheader
time	pelvis_tilt	pelvis_list	pelvis_rotation	pelvis_tx	pelvis_ty	pelvis_tz	bb_angle	bb_tx	bb_ty	bb_tz	hip_flexion_r	hip_adduction_r	hip_rotation_r	knee_angle_r	knee_angle_r_beta	ankle_angle_r	subtalar_angle_r	mtp_angle_r	crank_angle_r	hip_flexion_l	hip_adduction_l	hip_rotation_l	knee_angle_l	knee_angle_l_beta	ankle_angle_l	subtalar_angle_l	mtp_angle_l	crank_angle_l	lumbar_extension	lumbar_bending	lumbar_rotation	arm_flex_r	arm_add_r	arm_rot_r	elbow_flex_r	pro_sup_r	wrist_flex_r	wrist_dev_r	arm_flex_l	arm_add_l	arm_rot_l	elbow_flex_l	pro_sup_l	wrist_flex_l	wrist_dev_l
      7.50000000	    -32.26273355	     -2.78579092	     -0.53277047	      0.23834763	      1.13616951	     -0.25563466	      0.00000000	      0.50000000	      0.00000000	      0.25000000	     86.94770580	      1.20087630	      3.34345690	    108.74762519	      1.89800411	    -13.99677125	     -9.84618631	      0.00000000	      0.00000000	     45.02448816	     -9.42228064	     -9.73274215	     19.34318144	      0.33760220	    -21.38679265	      5.14629965	      0.00000000	      0.00000000	    -56.67667557	     -5.59966773	     10.89104664	     54.20667183	    -47.05229066	     15.69544840	     99.57306736	     51.66853698	      0.00000000	      0.00000000	     66.56066889	    -11.17671184	     24.30867131	     88.40921265	     51.29498103	      0.00000000	      0.00000000
      7.50500000	    -32.11557857	     -3.09637139	     -1.20286004	      0.23606912	      1.13516307	     -0.25588104	      0.00000000	      0.50000000	      0.00000000	      0.25000000	     88.15708863	      1.71889595	      3.11040041	    109.52387911	      1.91155230	    -12.86554014	     -9.43387093	      0.00000000	      0.00000000	     43.89936660	    -10.01217588	    -10.02880734	     18.47009532	      0.32236398	    -21.83290709	      5.32024852	      0.00000000	      0.00000000	    -56.59547060	     -5.62933688	     11.51232337	     54.75218181	    -46.87901330	     15.81541499	     99.56266327	     51.66711643	      0.00000000	      0.00000000	     66.57207162	    -11.26093256	     24.16968788	     88.27446514	     51.26178577	      0.00000000	      0.00000000
      7.51000000	    -31.96639281	     -3.34695859	     -1.77768411	      0.23379411	      1.13430442	     -0.25635216	      0.00000000	      0.50000000	      0.00000000	      0.25000000	     89.30760447	      1.97452759	      2.77977844	    110.12810239	      1.92209799	    -12.02377427	     -9.18392093	      0.00000000	      0.00000000	     42.84949660	    -10.45489532	    -10.11136289	     17.83724570	      0.31131867	    -21.91414412	      5.30750233	      0.00000000	      0.00000000	    -56.57860669	     -5.65895042	     12.00580478	     55.28113333	    -46.62313546	     15.82275276	     99.51826534	     51.65034153	      0.00000000	      0.00000000	     66.66237864	    -11.27081630	     24.05319396	     88.15174265	     51.23028558	      0.00000000	      0.00000000
      7.51500000	    -31.56879191	     -3.42339694	     -2.35023148	      0.23178295	      1.13406873	     -0.25667616	      0.00000000	      0.50000000	      0.00000000	      0.25000000	     90.06890720	      2.29219882	      2.80214156	    110.61310879	      1.93056294	    -10.54432273	     -7.99763392	      0.00000000	      0.00000000	     41.54289324	    -10.79128023	    -10.55315185	     17.28485509	      0.30167763	    -22.23165584	      5.30240485	      0.00000000	      0.00000000	    -56.79696580	     -5.81098999	     12.32253175	     56.40293083	    -47.08533768	     16.89296717	     99.12200571	     51.66753371	      0.00000000	      0.00000000	     66.74855548	    -11.12543357	     23.82931424	     87.75016090	     51.14566927	      0.00000000	      0.00000000
      7.52000000	    -31.38463963	     -3.62469783	     -2.80137373	      0.22935377	      1.13376671	     -0.25701353	      0.00000000	      0.50000000	      0.00000000	      0.25000000	     91.00859777	      2.50932323	      2.54761902	    110.89649729	      1.93550901	     -9.60767373	     -7.67351386	      0.00000000	      0.00000000	     40.70864974	    -11.14136831	    -10.49404343	     17.15411588	      0.29939580	    -22.19142687	      5.07474356	      0.00000000	      0.00000000	    -56.80206368	     -5.66069100	     11.74333280	     59.31423726	    -46.20607508	     20.31006176	     97.51003285	     51.65936233	      0.00000000	      0.00000000	     66.45412887	    -12.20373873	     22.99554828	     88.17742246	     51.19105347	      0.00000000	      0.00000000
